<svg preserveAspectRatio="xMidYMid meet" data-bbox="0.398 -0.186 156.958 46.191" xmlns="http://www.w3.org/2000/svg" viewBox="0.398 -0.186 156.958 46.191" height="46" width="162" data-type="color" role="presentation" aria-hidden="true" aria-label="">
    <g>
        <g clip-path="url(#88a595ec-1368-40e3-9cae-eaf804dc769a_comp-l4o2cf0b_r_comp-kd5pcdw0)">
            <path fill="#05154D" d="M14.943 34.371v3.04c0 2.28.916 4.465 2.545 6.077a8.738 8.738 0 0 0 6.144 2.517 8.738 8.738 0 0 0 6.144-2.517 8.545 8.545 0 0 0 2.545-6.076v-3.04H14.943Z" data-color="1"></path>
            <path fill="#05154D" d="M35.135 14.412v17.18h3.075a8.776 8.776 0 0 0 3.386-.595 8.7 8.7 0 0 0 2.887-1.849 8.59 8.59 0 0 0 1.936-2.812 8.509 8.509 0 0 0 0-6.668 8.59 8.59 0 0 0-1.936-2.812 8.7 8.7 0 0 0-2.887-1.848 8.776 8.776 0 0 0-3.386-.596h-3.075Z" data-color="1"></path>
            <path fill="#05154D" d="M73.617 11.417a5.352 5.352 0 0 1-2.293 2.158 8.376 8.376 0 0 1-3.93.818H64.16v7.314H60.3V2.654h7.117a8.72 8.72 0 0 1 3.809.764 5.408 5.408 0 0 1 2.358 2.102 6.12 6.12 0 0 1 .056 5.897h-.023Zm-4.019-.832a2.66 2.66 0 0 0 .777-2.034c0-1.84-1.05-2.76-3.15-2.76h-3.064v5.52h3.065c1.065-.004 1.86-.243 2.372-.726Z" data-color="1"></path>
            <path fill="#05154D" d="M77.012 10.028a6.582 6.582 0 0 1 2.484-2.708 6.684 6.684 0 0 1 3.563-.972 6.277 6.277 0 0 1 2.996.685 6.03 6.03 0 0 1 2.056 1.72V6.597h3.893v15.12h-3.893V19.51a5.7 5.7 0 0 1-2.056 1.757c-.933.48-1.973.72-3.024.699a6.515 6.515 0 0 1-3.516-.984 6.859 6.859 0 0 1-2.512-2.76 8.793 8.793 0 0 1-.93-4.108 8.633 8.633 0 0 1 .94-4.085Zm10.56 1.73a3.889 3.889 0 0 0-1.494-1.528 4.021 4.021 0 0 0-2.014-.533 3.927 3.927 0 0 0-2.02.539A3.87 3.87 0 0 0 80.6 11.73a4.723 4.723 0 0 0-.563 2.364 4.85 4.85 0 0 0 .563 2.388c.344.647.86 1.19 1.493 1.568a3.818 3.818 0 0 0 1.972.548 4.02 4.02 0 0 0 2.014-.534 3.889 3.889 0 0 0 1.493-1.527 5.47 5.47 0 0 0 0-4.78Z" data-color="1"></path>
            <path fill="#05154D" d="M100.292 9.724v7.319a1.443 1.443 0 0 0 .373 1.104 1.84 1.84 0 0 0 1.255.34h1.777v3.22h-2.428c-3.256 0-4.885-1.564-4.888-4.692v-7.29h-1.819V6.586h1.819v-3.74h3.893v3.74h3.423v3.137h-3.405Z" data-color="1"></path>
            <path fill="#05154D" d="M106.767 4.145a2.235 2.235 0 0 1-.69-1.61 2.235 2.235 0 0 1 .69-1.61 2.571 2.571 0 0 1 3.396 0 2.237 2.237 0 0 1 0 3.22 2.571 2.571 0 0 1-3.396 0Zm3.601 2.442v15.12h-3.88V6.587h3.88Z" data-color="1"></path>
            <path fill="#05154D" d="M128.28 15.295h-11.163c.038.971.453 1.89 1.158 2.567a3.615 3.615 0 0 0 2.512.92 3.183 3.183 0 0 0 1.823-.448 3.13 3.13 0 0 0 1.242-1.392h4.186a6.9 6.9 0 0 1-2.539 3.588 7.465 7.465 0 0 1-4.61 1.407 8.013 8.013 0 0 1-3.958-.97 6.813 6.813 0 0 1-2.735-2.76 8.352 8.352 0 0 1-.982-4.094 8.491 8.491 0 0 1 .968-4.14 6.698 6.698 0 0 1 2.707-2.733 8.75 8.75 0 0 1 7.907-.027 6.582 6.582 0 0 1 2.675 2.636 7.86 7.86 0 0 1 .953 3.914 8.75 8.75 0 0 1-.144 1.532Zm-3.888-2.567a2.992 2.992 0 0 0-1.079-2.36 3.829 3.829 0 0 0-2.568-.887 3.53 3.53 0 0 0-2.414.86 3.779 3.779 0 0 0-1.2 2.387h7.261Z" data-color="1"></path>
            <path fill="#05154D" d="M144.1 8.073c1.119 1.138 1.68 2.726 1.683 4.766v8.868h-3.865v-8.349a3.892 3.892 0 0 0-.93-2.76 3.287 3.287 0 0 0-2.484-.97 3.341 3.341 0 0 0-2.526.97 3.857 3.857 0 0 0-.93 2.76v8.35h-3.865V6.587h3.865v1.88a5.341 5.341 0 0 1 1.972-1.54 6.203 6.203 0 0 1 2.638-.562 5.963 5.963 0 0 1 2.402.391c.765.294 1.46.742 2.04 1.316Z" data-color="1"></path>
            <path fill="#05154D" d="M153.933 9.724v7.319a1.425 1.425 0 0 0 .372 1.104c.362.262.809.383 1.256.34h1.795v3.22h-2.428c-3.256 0-4.884-1.564-4.884-4.692v-7.29h-1.823V6.586h1.823v-3.74h3.889v3.74h3.423v3.137h-3.423Z" data-color="1"></path>
            <path fill="#05154D" d="M63.318 44.96a5.987 5.987 0 0 1-2.553-1.968 5.144 5.144 0 0 1-.963-3.027h4.14c.023.7.325 1.361.842 1.84a3.004 3.004 0 0 0 2.084.685 3.235 3.235 0 0 0 2.125-.644 2.06 2.06 0 0 0 .772-1.679 1.929 1.929 0 0 0-.525-1.38 3.584 3.584 0 0 0-1.312-.86 21.76 21.76 0 0 0-2.163-.7 23.176 23.176 0 0 1-3.051-1.075 5.314 5.314 0 0 1-2.014-1.61 4.564 4.564 0 0 1-.842-2.88 5.089 5.089 0 0 1 .856-2.949 5.407 5.407 0 0 1 2.4-1.927 8.887 8.887 0 0 1 3.53-.667c1.991 0 3.607.478 4.847 1.435a5.322 5.322 0 0 1 1.476 1.774c.355.69.553 1.45.58 2.224h-4.27a2.166 2.166 0 0 0-.842-1.624 3.196 3.196 0 0 0-2.084-.644 2.714 2.714 0 0 0-1.81.575 2.069 2.069 0 0 0-.674 1.665 1.709 1.709 0 0 0 .512 1.27c.364.353.796.631 1.27.818.7.277 1.414.518 2.14.722 1.045.291 2.068.657 3.06 1.095a5.482 5.482 0 0 1 2.047 1.638c.602.833.903 1.843.856 2.866a5.347 5.347 0 0 1-.805 2.838 5.598 5.598 0 0 1-2.326 2.088 8.071 8.071 0 0 1-3.67.778 9.254 9.254 0 0 1-3.633-.676Z" data-color="1"></path>
            <path fill="#05154D" d="M81.608 33.465v7.319a1.412 1.412 0 0 0 .372 1.104c.361.263.809.385 1.256.34h1.795v3.22h-2.433c-3.256 0-4.884-1.564-4.884-4.692v-7.29h-1.823v-3.138h1.823v-3.74h3.894v3.74h3.423v3.137h-3.423Z" data-color="1"></path>
            <path fill="#05154D" d="M102.251 30.328v15.12h-3.889V43.54a5.106 5.106 0 0 1-1.949 1.541 6.103 6.103 0 0 1-2.604.561 6.529 6.529 0 0 1-3.177-.75 5.322 5.322 0 0 1-2.168-2.212 7.293 7.293 0 0 1-.786-3.478v-8.873h3.865v8.326a3.878 3.878 0 0 0 .93 2.76 3.241 3.241 0 0 0 2.484.97 3.287 3.287 0 0 0 2.512-.97 3.878 3.878 0 0 0 .93-2.76v-8.326h3.852Z" data-color="1"></path>
            <path fill="#05154D" d="M105.995 33.769a6.624 6.624 0 0 1 2.503-2.713 6.721 6.721 0 0 1 3.581-.967c.985 0 1.956.22 2.842.644a5.7 5.7 0 0 1 2.154 1.706v-7.18h3.921v20.198h-3.921v-2.235a5.238 5.238 0 0 1-2.014 1.803 6.43 6.43 0 0 1-3.01.68 6.564 6.564 0 0 1-3.53-.984 6.828 6.828 0 0 1-2.526-2.76 8.784 8.784 0 0 1-.93-4.107 8.664 8.664 0 0 1 .93-4.085Zm10.554 1.73a3.881 3.881 0 0 0-1.488-1.528 4.035 4.035 0 0 0-2.014-.533 3.93 3.93 0 0 0-2.02.538 3.874 3.874 0 0 0-1.446 1.495 4.725 4.725 0 0 0-.567 2.364c-.019.83.176 1.652.567 2.387a4.067 4.067 0 0 0 1.489 1.57 3.79 3.79 0 0 0 1.977.547 4.036 4.036 0 0 0 2.014-.534 3.88 3.88 0 0 0 1.488-1.527 5.43 5.43 0 0 0 0-4.78Z" data-color="1"></path>
            <path fill="#05154D" d="M125.038 27.885a2.236 2.236 0 0 1 0-3.22 2.571 2.571 0 0 1 3.396 0 2.253 2.253 0 0 1 .686 1.61 2.251 2.251 0 0 1-.686 1.61 2.571 2.571 0 0 1-3.396 0Zm3.605 2.443v15.12h-3.865v-15.12h3.865Z" data-color="1"></path>
            <path fill="#05154D" d="M135.267 44.726a7.04 7.04 0 0 1-2.791-2.76 8.172 8.172 0 0 1-1.005-4.094 7.981 7.981 0 0 1 1.033-4.094 7.154 7.154 0 0 1 2.833-2.76 8.727 8.727 0 0 1 8.005 0 7.179 7.179 0 0 1 2.828 2.76 7.981 7.981 0 0 1 1.033 4.094 7.831 7.831 0 0 1-1.061 4.094 7.296 7.296 0 0 1-2.87 2.76 8.396 8.396 0 0 1-4.047.97 8.094 8.094 0 0 1-3.958-.97Zm5.949-2.866a3.697 3.697 0 0 0 1.475-1.513 5.079 5.079 0 0 0 .553-2.457c0-1.441-.381-2.547-1.144-3.316a3.785 3.785 0 0 0-1.272-.87 3.824 3.824 0 0 0-1.519-.294 3.714 3.714 0 0 0-2.791 1.164c-.744.772-1.116 1.878-1.116 3.316 0 1.435.363 2.544 1.088 3.317a3.62 3.62 0 0 0 2.745 1.16 4.075 4.075 0 0 0 1.981-.507Z" data-color="1"></path>
            <path fill="#E63345" d="M32.344 8.593v12.88a20.081 20.081 0 0 0-7.369-7.192 20.362 20.362 0 0 0-10.004-2.634v-3.04a8.508 8.508 0 0 1 .603-3.35 8.583 8.583 0 0 1 1.87-2.855A8.692 8.692 0 0 1 20.285.488a8.773 8.773 0 0 1 6.743 0 8.692 8.692 0 0 1 2.843 1.914c.81.82 1.445 1.79 1.87 2.856a8.508 8.508 0 0 1 .602 3.349v-.014Z" data-color="2"></path>
            <path fill="#E63345" d="M32.344 31.593H9.087a8.739 8.739 0 0 1-6.144-2.517A8.545 8.545 0 0 1 .398 23c0-2.279.916-4.465 2.545-6.076a8.739 8.739 0 0 1 6.144-2.517h5.884a17.477 17.477 0 0 1 12.285 5.035 17.09 17.09 0 0 1 5.088 12.15Z" data-color="2"></path>
        </g>
        <defs fill="none">
            <clipPath id="88a595ec-1368-40e3-9cae-eaf804dc769a_comp-l4o2cf0b_r_comp-kd5pcdw0">
                <path transform="translate(.375)" fill="#ffffff" d="M161 0v46H0V0h161z"></path>
            </clipPath>
        </defs>
    </g>
</svg>